<svg width="204" height="40" viewBox="0 0 204 40" fill="none" xmlns="http://www.w3.org/2000/svg">
<path d="M2.07306 37.8929H37.791V2.10704H2.07306V37.8929Z" fill="white"/>
<path d="M203.908 0V40H0V0H203.908ZM37.825 2.10705L2.07306 2.10704V37.8929H37.791V2.10704L37.825 2.10705ZM20.9686 10.8751L17.4002 22.158L19.3033 29.0909H10.9771L9.14189 22.0561L12.7103 10.8751H20.9686ZM31.198 10.8751L29.6007 29.1249H21.0365L22.5658 10.8751H31.198Z" fill="#181818"/>
<path d="M66.3042 11.3169L72.8292 28.6831H68.0034L66.8819 25.6584H60.6627L59.4733 28.6831H54.6814L61.3424 11.3169H66.3042ZM85.6075 11.3169C89.0399 11.3169 91.6228 12.9482 91.6228 16.6525C91.6228 19.0314 90.2974 21.1045 87.8165 21.5463L93.2541 28.6491H87.6466L83.3985 21.9881H83.3645V28.6491H78.8445V11.2829H85.6075V11.3169ZM136.347 11.3169L142.872 28.6831H138.046L136.924 25.6584H130.705L129.516 28.6831H124.758L131.419 11.3169H136.347ZM155.276 11.3169C160.102 11.3169 164.078 15.1232 164.078 19.983C164.078 24.8768 160.068 28.6491 155.276 28.6491H148.887V11.2829L155.276 11.3169ZM180.833 11.3169L187.358 28.6831H182.532L181.41 25.6584H175.191L174.002 28.6831H169.21L175.871 11.3169H180.833ZM105.455 11.3169L108.989 20.5947L112.727 11.3169H117.213L119.83 28.6831H115.31L114.053 18.6916H114.019L109.805 28.6831H108.003L104.027 18.6916H103.993L102.532 28.6831H98.0459L101.003 11.3169H105.455ZM154.461 15.1572H153.407V24.8768H154.427C157.111 24.8768 159.422 23.4155 159.422 20.017C159.422 16.8904 157.349 15.1572 154.461 15.1572ZM63.8573 16.6865H63.8233L61.9541 22.226H65.6925L63.8573 16.6865ZM133.9 16.6865H133.866L131.997 22.226H135.735L133.9 16.6865ZM178.386 16.6865H178.352L176.483 22.226H180.221L178.386 16.6865ZM83.8063 14.7833H83.3645V19.0994H83.8063C85.2676 19.0994 86.9329 18.8275 86.9329 16.9244C86.9329 15.0552 85.2676 14.7833 83.8063 14.7833Z" fill="white"/>
</svg>
