<svg width="143" height="40" viewBox="0 0 143 40" fill="none" xmlns="http://www.w3.org/2000/svg">
<path d="M48.2 15H41.9L33.9 31H39.9L41 28.6H49.2L50.3 31H56.3L48.2 15ZM42.7 24.9L45 19.9H45.2L47.5 24.9H42.7ZM53.1 19.7H58.7V31H64.3V19.7H70V15.1H53.1V19.7ZM80.4 14.6C73.8 14.6 70.7 17.8 70.7 23C70.7 28.1 73.8 31.4 80.4 31.4C87 31.4 90.1 28.2 90.1 23C90.1 17.9 87 14.6 80.4 14.6ZM80.4 27.3C77.4 27.3 76.6 25.4 76.6 23C76.6 20.7 77.4 18.7 80.4 18.7C83.4 18.7 84.2 20.6 84.2 23C84.2 25.3 83.4 27.3 80.4 27.3ZM133.7 27.3C130.8 27.3 129.9 25.4 129.9 23C129.9 20.7 130.7 18.8 133.6 18.8C135.5 18.8 136.5 19.5 137 20.6H142.9C142.1 16.9 139.3 14.7 133.7 14.7C127.1 14.7 124 18 124 23.1C124 28.2 127.1 31.4 133.7 31.4C139.3 31.4 142.2 29.1 143 25.2H137.2C136.6 26.5 135.8 27.3 133.7 27.3ZM116.9 30.9H122.3V15.1H116.9V30.9ZM107.1 15.1L103.2 25H103.1L99.2 15.1H91.8V31H97.1V21.7H97.3L101.1 31H105.2L109 21.7H109.2V31H114.5V15.1H107.1ZM14.7 32.3H14.6L0.1 40L0 39.8L6.8 29.2C9 25.8 9.3 25 10 21.8L14.6 0H14.8L19.4 21.8C20.1 25 20.4 25.8 22.6 29.2L29.4 39.8L29.3 40L14.7 32.3Z" fill="#181818"/>
</svg>
