<svg width="240" height="40" viewBox="0 0 240 40" fill="none" xmlns="http://www.w3.org/2000/svg">
<path fill-rule="evenodd" clip-rule="evenodd" d="M228.917 9.58333C229.25 9.58333 229.667 9.58333 229.667 10.0833C229.667 10.5833 229.417 10.6667 228.917 10.6667H228.417V9.58333H228.917ZM230.083 12.0833L229.167 10.9167C229.583 10.9167 229.917 10.5833 229.917 10.0833C229.917 9.58333 229.583 9.33333 228.917 9.33333H228.083V12.0833H228.333V10.9167H228.75L229.583 12.0833H230H230.083ZM229 8.5C230.167 8.5 231.083 9.5 231.083 10.6667C231.083 11.8333 230.167 12.8333 229 12.8333C227.833 12.8333 226.917 11.8333 226.917 10.6667C226.917 9.5 227.833 8.5 229 8.5ZM229 13.0833C230.25 13.0833 231.417 12 231.417 10.6667C231.417 9.33333 230.333 8.25 229 8.25C227.667 8.25 226.583 9.33333 226.583 10.6667C226.583 12 227.667 13.0833 229 13.0833ZM231.417 19.8333C232.833 19.8333 233.833 21 233.833 23.3333C233.833 25.6667 232.833 26.8333 231.417 26.8333C230 26.8333 229 25.6667 229 23.3333C229 21 230 19.8333 231.417 19.8333ZM233.917 17.9167C232.75 16.75 231.25 16.4167 229.75 16.4167C225.083 16.5 223.667 20.4167 223.667 23.4167C223.667 26.4167 226.917 30.0833 229.917 30.0833C232.917 30.0833 233.5 29.3333 234.25 28.0833V29.5833H239.083V10.4167H233.917V17.9167ZM212.75 29.6667V22.5C212.75 21.3333 213.583 20.25 214.833 20.25C216.083 20.25 216.583 20.8333 216.583 22.1667V29.75H221.75V21.0833C221.667 18 219.333 16.5833 217.167 16.5833C215 16.5833 213.417 17.1667 212.667 19.25V17.0833H207.583V29.75H212.75V29.6667ZM170.833 29.6667V21.9167C170.833 20.5833 171.667 20.1667 172.5 20.1667C173.333 20.1667 174.167 20.5833 174.167 21.9167V29.6667H179.333V21.9167C179.333 20.5833 180.167 20.1667 181 20.1667C181.833 20.1667 182.667 20.5833 182.667 21.9167V29.6667H187.833V21.9167C187.833 17.5833 185.417 16.5 182.667 16.5C179.917 16.5 179.417 17.1667 178.667 18.75C177.917 17.25 176.583 16.5 174.833 16.5C173.083 16.5 171.667 17.0833 170.75 18.8333V17H165.833V29.6667H171H170.833ZM140.667 15.1667H145.833V10.5H140.667V15.1667ZM140.667 29.6667H145.833V17.3333H140.667V29.6667ZM119.333 10.4167H127.583C135 10.4167 138.917 13.3333 138.917 20C138.917 26.6667 135 29.5833 127.583 29.5833H119.333V10.4167ZM124.75 25.75H127.833C131.5 25.75 133.083 23.5833 133.083 20.0833C133.083 16.5833 130.667 14.4167 127.833 14.4167H124.75V25.75ZM205.667 23.3333C205.667 27.1667 203 30.1667 197.667 30.1667C192.333 30.1667 189.667 27.1667 189.667 23.3333C189.667 19.5 192.333 16.5 197.667 16.5C203 16.5 205.667 19.5 205.667 23.3333ZM195.167 23.3333C195.167 25.9167 196.083 27.25 197.75 27.25C199.417 27.25 200.333 26 200.333 23.3333C200.333 20.6667 199.417 19.4167 197.75 19.4167C196.083 19.4167 195.167 20.6667 195.167 23.3333ZM155.667 19.8333C157.083 19.8333 158.083 21 158.083 23.3333C158.083 25.6667 157.083 26.75 155.667 26.75C154.25 26.75 153.25 25.6667 153.25 23.3333C153.25 21 154.25 19.8333 155.667 19.8333ZM163.5 29.6667C162.833 28.9167 162.667 27.9167 162.667 26.5833V26.1667V17.0833H158.083V18.25C157.167 17.0833 155.583 16.5833 154.083 16.5833C150.25 16.5833 147.583 19.75 147.583 23.4167C147.583 27.0833 150.25 30.3333 154.083 30.3333C157.917 30.3333 157.5 29.6667 158.167 28.25C158.167 29 158.167 29.4167 158.417 29.8333H163.417L163.5 29.6667ZM102.333 29.6667V26.25L103.917 24.6667L106.5 29.5833H112.333L107.583 21.3333L111.917 16.9167H105.75L102.417 20.6667V10.4167H97.25V29.5833H102.417L102.333 29.6667ZM95.3333 21.5C94.8333 18.3333 91.75 16.5 88.1667 16.5C83.0833 16.5 80.5 20.0833 80.5 23.25C80.5 26.4167 83.8333 30.1667 88.0833 30.1667C92.3333 30.1667 91.6667 29.8333 93 29C94.3333 28.1667 95.25 26.9167 95.4167 25H90.25C90.1667 26.0833 89.75 27 88.1667 27C86.5833 27 85.9167 26.4167 85.9167 23.0833C85.9167 19.75 86.75 19.5833 88.0833 19.5833C89.4167 19.5833 89.0833 19.75 89.4167 20.0833C89.75 20.4167 89.9167 20.8333 90 21.4167H95.3333V21.5ZM56.6667 29.6667H61.8333V10.4167H56.6667V29.5833V29.6667ZM36.8333 10.4167H47C51.6667 10.4167 54 12.1667 54 15C54 17.8333 52.9167 18.75 50.5 19.3333C53.1667 19.75 54.8333 21.3333 54.8333 24.0833C54.8333 26.8333 53.5 29.5833 46.9167 29.5833H36.8333V10.4167ZM42.3333 14.25V17.9167H45.9167C47.9167 17.9167 48.4167 17.25 48.4167 16C48.4167 14.75 47.9167 14.25 45.9167 14.25H42.3333ZM42.3333 21.6667V25.8333H45.5833C48.5 25.8333 49.25 25.1667 49.25 23.75C49.25 22.3333 48.5 21.6667 46.6667 21.6667H42.25H42.3333ZM71.5833 19.8333C73 19.8333 74 20.9167 74 23.25C74 25.5833 73 26.6667 71.5833 26.6667C70.1667 26.6667 69.1667 25.5833 69.1667 23.25C69.1667 20.9167 70.1667 19.8333 71.5833 19.8333ZM79.5 29.6667C78.8333 28.9167 78.6667 27.9167 78.6667 26.5833V26.1667V17.0833H74.0833V18.25C73.1667 17.0833 71.5833 16.5833 70.0833 16.5833C66.25 16.5833 63.5833 19.75 63.5833 23.4167C63.5833 27.0833 66.25 30.3333 70.0833 30.3333C73.9167 30.3333 73.5 29.6667 74.1667 28.25C74.1667 28.9167 74.1667 29.4167 74.4167 29.8333H79.4167L79.5 29.6667ZM13.9167 0L0 20L13.9167 40L18.4167 33.5L8.91667 19.8333L18.3333 6.33333L13.9167 0ZM13.3333 20L20.5833 9.58333L27.8333 20L20.5833 30.4167L13.3333 20Z" fill="#181818"/>
</svg>
