<svg width="341" height="40" viewBox="0 0 341 40" fill="none" xmlns="http://www.w3.org/2000/svg">
<path d="M9.9516 16.8101L0 6.81133L4.29063 2.52109L9.9516 8.22607L15.6586 2.52109L19.9492 6.81133L9.9516 16.8101ZM21.5483 28.4041L11.5947 18.4073L15.8862 14.117L21.5483 19.8216L27.2533 14.117L31.5443 18.4073L21.5483 28.4041ZM33.1431 16.8101L23.1911 6.81133L27.4809 2.52109L33.1431 8.22607L38.848 2.52109L43.1395 6.81133L33.1431 16.8101ZM33.1431 40L23.1911 30.0032L27.4809 25.711L33.1431 31.4179L38.848 25.711L43.1395 30.0032L33.1431 40ZM44.7378 28.4041L34.7858 18.4073L39.0776 14.117L44.7378 19.8216L50.4428 14.117L54.7342 18.4073L44.7378 28.4041ZM56.3329 16.8101L46.3813 6.81133L50.6728 2.52109L56.3329 8.22607L62.0395 2.52109L66.329 6.81133L56.3329 16.8101Z" fill="#181818"/>
<path d="M91.5499 31.7879C94.3538 31.7879 95.2662 30.3784 95.7222 29.6736C97.0909 27.5597 97.0909 25.0974 97.0909 23.8662C97.0909 20.1724 96.1638 18.8148 95.7002 18.1361C94.3094 16.1006 92.4699 16.1006 91.5499 16.1006C89.614 16.1006 88.7093 16.8125 88.2569 17.1685C86.8993 18.2365 86.4545 19.4156 86.2318 20.0056C85.5642 21.7747 85.5642 23.1691 85.5642 23.8662C85.5642 25.9802 86.0018 27.1817 86.221 27.7825C86.8773 29.5848 87.7821 30.3192 88.2345 30.6864C89.592 31.7879 90.8972 31.7879 91.5499 31.7879ZM93.8199 37.3953C91.8615 37.3953 90.838 37.0321 90.3264 36.8501C88.7909 36.3049 88.0937 35.6818 87.7449 35.3702C86.6101 34.3466 86.165 33.6199 85.9426 33.2563H85.787L86.0094 34.7474V36.9057L79.0444 36.8389V1.05796H86.0094V13.0295L85.787 14.4758H85.9426C86.6545 13.4523 87.3817 12.8291 87.7449 12.5179C88.8132 11.5831 89.8292 11.2271 90.3372 11.0492C91.8615 10.5148 93.1671 10.5148 93.8199 10.5148C97.2021 10.5148 98.7969 11.6275 99.594 12.1839C101.986 13.8526 102.802 15.863 103.21 16.8677C104.434 19.8832 104.434 22.5531 104.434 23.8886C104.434 27.8937 103.618 29.926 103.21 30.9424C101.986 33.9906 100.399 35.1258 99.6052 35.693C97.2241 37.3953 94.9546 37.3953 93.8199 37.3953Z" fill="#181818"/>
<path d="M113.69 1.05796H106.725V36.8389H113.69V1.05796Z" fill="#181818"/>
<path d="M127.144 32.2331C129.614 32.2331 130.526 31.0684 130.982 30.486C132.351 28.7392 132.41 26.8405 132.44 25.891L132.506 23.8662H132.351C131.839 24.5334 131.179 24.8378 130.848 24.9898C129.858 25.4462 128.627 25.639 128.011 25.7354C125.475 26.0914 124.755 26.6181 124.395 26.8813C123.316 27.6713 123.316 28.5908 123.316 29.0508C123.316 30.4972 123.991 31.0755 124.329 31.3651C125.341 32.2331 126.543 32.2331 127.144 32.2331ZM124.54 37.3953C121.981 37.3953 120.69 36.7797 120.045 36.4717C118.109 35.5482 117.397 34.3986 117.041 33.8238C115.973 32.0995 115.973 30.5564 115.973 29.7852C115.973 26.4249 117.605 25.053 118.421 24.3666C120.868 22.3087 124.503 21.9823 126.32 21.8191C128.835 21.5967 129.695 21.3515 130.125 21.2295C131.416 20.8624 131.728 20.4988 131.883 20.3168C132.351 19.7716 132.351 19.1636 132.351 18.8592C132.351 17.4129 131.698 16.8493 131.372 16.5673C130.392 15.7222 128.953 15.7222 128.234 15.7222C126.009 15.7222 125.282 16.3229 124.918 16.6233C123.828 17.5245 123.695 18.696 123.628 19.2824H116.685C116.93 15.0322 118.881 13.5263 119.856 12.7735C122.782 10.5148 126.357 10.5148 128.145 10.5148C133.53 10.5148 135.458 11.9987 136.423 12.7403C139.315 14.9654 139.315 17.7397 139.315 19.1264V36.8389H132.751V35.1258L132.996 32.9895H132.818C132.084 34.1686 131.386 34.8214 131.038 35.1478C128.612 37.3953 125.897 37.3953 124.54 37.3953Z" fill="#181818"/>
<path d="M154.331 37.3953C150.504 37.3953 148.59 36.3421 147.633 35.8154C144.763 34.2354 143.709 32.2031 143.183 31.1872C141.603 28.1385 141.603 25.2902 141.603 23.8662C141.603 19.5936 142.656 17.5909 143.183 16.5897C144.763 13.5859 146.691 12.5551 147.655 12.0395C150.548 10.4928 153.144 10.4928 154.442 10.4928C157.98 10.4928 159.708 11.3015 160.572 11.7055C163.165 12.9183 164.144 14.409 164.633 15.1546C166.102 17.3909 166.265 19.438 166.347 20.4616H158.981C158.581 18.3925 157.832 17.6281 157.457 17.2461C156.333 16.1006 155.043 16.1006 154.397 16.1006C151.661 16.1006 150.756 17.4797 150.303 18.1697C148.946 20.2392 148.946 22.6423 148.946 23.8438C148.946 27.4489 149.873 28.8952 150.336 29.6184C151.728 31.7879 153.537 31.7879 154.442 31.7879C156.623 31.7879 157.409 30.868 157.802 30.408C158.981 29.0288 159.189 27.5897 159.293 26.8701H166.681C166.369 30.0744 165.293 31.6615 164.756 32.4555C163.143 34.8362 161.355 35.6894 160.461 36.1158C157.78 37.3953 155.481 37.3953 154.331 37.3953Z" fill="#181818"/>
<path d="M192.831 36.8389H184.953L178.3 24.6226L175.585 27.2709V36.8389H168.62V1.05796H175.585V20.0612L184.308 11.0492H192.719L183.507 20.3948L192.831 36.8389Z" fill="#181818"/>
<path d="M204.268 37.3953C200.441 37.3953 198.527 36.3421 197.57 35.8154C194.7 34.2354 193.647 32.2031 193.12 31.1872C191.54 28.1385 191.54 25.2902 191.54 23.8662C191.54 19.5936 192.594 17.5909 193.12 16.5897C194.7 13.5859 196.629 12.5551 197.593 12.0395C200.486 10.4928 203.081 10.4928 204.38 10.4928C207.918 10.4928 209.646 11.3015 210.51 11.7055C213.102 12.9183 214.081 14.409 214.571 15.1546C216.04 17.3909 216.203 19.438 216.285 20.4616H208.919C208.518 18.3925 207.769 17.6281 207.395 17.2461C206.271 16.1006 204.981 16.1006 204.335 16.1006C201.598 16.1006 200.693 17.4797 200.241 18.1697C198.883 20.2392 198.883 22.6423 198.883 23.8438C198.883 27.4489 199.81 28.8952 200.274 29.6184C201.665 31.7879 203.475 31.7879 204.38 31.7879C206.56 31.7879 207.347 30.868 207.74 30.408C208.919 29.0288 209.127 27.5897 209.23 26.8701H216.618C216.307 30.0744 215.231 31.6615 214.693 32.4555C213.08 34.8362 211.293 35.6894 210.399 36.1158C207.717 37.3953 205.418 37.3953 204.268 37.3953Z" fill="#181818"/>
<path d="M218.558 36.8389V11.0712H225.1V13.0743L224.833 15.1878H225.011C225.901 13.6303 226.435 13.1111 226.702 12.8515C227.837 11.7387 228.92 11.3311 229.462 11.1271C231.086 10.5148 232.733 10.5148 233.556 10.5148C234.268 10.5148 234.802 10.604 235.069 10.6484V17.1905C234.335 17.0349 233.563 17.0349 233.177 17.0349C229.372 17.0349 228.089 18.1993 227.448 18.7816C225.523 20.5284 225.523 22.8131 225.523 23.955V36.8389H218.558Z" fill="#181818"/>
<path d="M247.253 31.7879C250.078 31.7879 250.984 30.386 251.436 29.6848C252.793 27.5821 252.793 25.105 252.793 23.8662C252.793 20.15 251.896 18.8 251.447 18.1253C250.101 16.1006 248.202 16.1006 247.253 16.1006C244.427 16.1006 243.521 17.4501 243.069 18.1253C241.712 20.15 241.712 22.6275 241.712 23.8662C241.712 27.5597 242.624 28.9692 243.08 29.6736C244.449 31.7879 246.318 31.7879 247.253 31.7879ZM247.253 37.3953C243.47 37.3953 241.526 36.3345 240.555 35.8042C237.64 34.2134 236.549 32.1807 236.004 31.1648C234.369 28.1161 234.369 25.283 234.369 23.8662C234.369 19.616 235.459 17.6057 236.004 16.6009C237.64 13.5859 239.583 12.5551 240.555 12.0395C243.47 10.4928 245.992 10.4928 247.253 10.4928C251.035 10.4928 252.986 11.5239 253.961 12.0395C256.888 13.5859 257.978 15.5958 258.523 16.6009C260.159 19.616 260.159 22.4495 260.159 23.8662C260.159 28.1161 259.061 30.1488 258.512 31.1648C256.865 34.2134 254.922 35.2742 253.95 35.8042C251.035 37.3953 248.514 37.3953 247.253 37.3953Z" fill="#181818"/>
<path d="M275.172 36.8389H267.295L258.861 11.0492H266.16L271.345 27.4933L271.723 28.9172H271.901L272.235 27.4933L276.596 11.0492H284.585L288.946 27.4933L289.28 28.9172H289.435L289.814 27.4933L294.998 11.0492H302.297L293.886 36.8389H286.009L281.046 19.1264L280.668 17.5465H280.512L280.112 19.1264L275.172 36.8389Z" fill="#181818"/>
<path d="M312.96 37.3953C307.375 37.3953 305.372 35.8154 304.371 35.0254C301.367 32.6555 301.204 29.7924 301.122 28.3613H308.087C308.243 30.2524 309.059 30.8976 309.467 31.2203C310.691 32.1883 312.397 32.1883 313.249 32.1883C315.363 32.1883 316.15 31.7211 316.543 31.4875C317.722 30.7864 317.722 29.956 317.722 29.5404C317.722 28.3613 317.181 27.9009 316.91 27.6713C316.098 26.9813 315.275 26.7589 314.863 26.6477C313.628 26.3137 312.174 26.0617 311.447 25.9354C308.398 25.4014 307.123 24.9862 306.485 24.7786C304.571 24.1554 303.659 23.1467 303.203 22.6423C301.834 21.1291 301.834 19.3192 301.834 18.4145C301.834 15.9446 302.65 14.765 303.058 14.1754C304.282 12.4063 305.855 11.7759 306.641 11.4607C309 10.5148 311.225 10.5148 312.337 10.5148C315.875 10.5148 317.581 11.2271 318.434 11.5831C320.993 12.6511 321.928 13.9418 322.395 14.587C323.797 16.5229 323.915 18.2293 323.975 19.082H317.411C317.277 17.4129 316.476 16.7753 316.075 16.4565C314.874 15.4994 313.375 15.4994 312.627 15.4994C310.846 15.4994 310.164 15.9222 309.823 16.1338C308.799 16.7677 308.799 17.4649 308.799 17.8137C308.799 18.8148 309.304 19.2004 309.556 19.3932C310.312 19.972 311.069 20.1652 311.447 20.2612C312.582 20.5508 313.961 20.788 314.651 20.9068C317.766 21.4187 319.109 21.8559 319.78 22.0747C321.794 22.7311 322.759 23.7918 323.241 24.3222C324.687 25.9134 324.687 27.8269 324.687 28.7836C324.687 31.5431 323.737 32.8335 323.263 33.4791C321.839 35.415 320.081 36.075 319.202 36.4049C316.565 37.3953 314.162 37.3953 312.96 37.3953Z" fill="#181818"/>
<path d="M330.722 0V1.42594H328.421V7.83888H326.747V1.42594H324.446V0H330.722Z" fill="#181818"/>
<path d="M340.144 0V7.83888H338.561V1.78512L336.538 7.83888H335.173L333.165 1.79512V7.83888H331.587V0H334.146L335.855 5.54777L337.585 0H340.144Z" fill="#181818"/>
</svg>
