<svg width="301" height="40" viewBox="0 0 301 40" fill="none" xmlns="http://www.w3.org/2000/svg">
<path d="M22.87 0.0375932L0.0133324 39.8363C-0.0367919 39.8864 0.0634563 40.0368 0.163705 39.9867C8.43421 36.0268 15.1509 31.0144 22.87 24.3479C22.9201 24.2978 22.9201 24.2978 23.0204 24.3479C30.7395 31.0144 37.4562 35.9266 45.7267 39.9867C45.7768 40.0368 45.9272 39.9365 45.8771 39.8363L23.0204 0.0375932C23.0204 -0.0125311 22.87 -0.0125311 22.87 0.0375932ZM189.634 29.6109C189.583 29.8114 189.583 30.0119 189.634 30.1122C189.634 30.1122 189.784 30.2626 189.984 30.4129C193.593 33.1196 197.252 34.3727 201.313 34.3727C204.571 34.3727 207.327 33.5206 209.282 31.8164C211.287 30.2124 212.24 27.9067 212.24 25.3002C212.24 22.5935 211.438 20.5384 209.884 19.135C208.33 17.7315 206.074 16.6789 203.167 15.9771C200.21 15.2754 198.305 14.6238 197.453 14.0724C196.551 13.521 196.1 12.6689 196.1 11.6664C196.1 10.664 196.45 9.91208 197.152 9.26046C197.854 8.7091 198.856 8.35823 200.059 8.35823C202.816 8.35823 205.523 9.26047 208.029 11.1151C208.079 11.1652 208.18 11.1652 208.23 11.1652C208.28 11.1652 208.38 11.1151 208.38 11.0148L210.636 6.65401C210.686 6.50363 210.686 6.30313 210.586 6.253C209.182 5.10014 208.129 4.54879 206.275 3.89717C204.22 3.19543 202.265 2.84456 200.21 2.84456C197.152 2.84456 194.546 3.64654 192.491 5.20039C190.486 6.75424 189.433 8.95972 189.433 11.7667C189.433 14.5736 190.235 16.729 191.839 17.9821C193.443 19.3354 195.999 20.3881 199.608 21.2903C201.864 21.8417 203.518 22.4432 204.27 22.9945C205.122 23.6461 205.523 24.4983 205.523 25.4506C205.523 26.403 205.122 27.3052 204.32 27.9067C203.518 28.4581 202.465 28.7588 201.162 28.7588C198.405 28.7588 195.348 27.4055 192.19 24.6486C192.14 24.5985 192.04 24.5985 191.989 24.5985C191.939 24.5985 191.839 24.6486 191.789 24.6486C191.839 24.6486 189.634 29.6109 189.634 29.6109ZM240.76 3.69666H218.054C217.854 3.69666 217.553 3.84704 217.402 4.04754L214.946 9.16022C214.796 9.36072 214.946 9.51108 215.147 9.51108H224.57C224.771 9.51108 224.971 9.71159 224.971 9.91209V33.1196C224.971 33.3201 225.172 33.5206 225.372 33.5206H230.836C231.036 33.5206 231.237 33.3201 231.237 33.1196V9.91209C231.237 9.71159 231.437 9.51108 231.638 9.51108H237.853C238.054 9.51108 238.354 9.36072 238.505 9.16022L241.061 4.04754C241.161 3.84704 241.061 3.69666 240.76 3.69666ZM270.083 33.2199L254.545 2.39344C254.394 2.19294 254.244 2.19294 254.144 2.39344L238.705 33.2199C238.655 33.4204 238.705 33.5707 238.906 33.5707H244.62C244.82 33.5707 245.121 33.4204 245.171 33.2199L247.176 28.9593C247.226 28.7588 247.527 28.6084 247.728 28.6084H260.66C260.86 28.6084 261.161 28.7588 261.211 28.9593L263.316 33.2199C263.366 33.4204 263.667 33.5707 263.868 33.5707H269.682C270.083 33.6209 270.183 33.4204 270.083 33.2199ZM258.204 23.2451H250.434C250.234 23.2451 250.083 23.0948 250.234 22.8943L254.244 14.6739C254.294 14.4734 254.545 14.4734 254.595 14.6739L258.504 22.8943C258.554 23.0447 258.404 23.2451 258.204 23.2451ZM274.995 4.14779C274.995 3.9473 275.196 3.74679 275.396 3.74679H289.331C294.443 3.74679 299.155 7.85699 299.155 12.9195C299.155 15.9771 298.153 19.7866 294.343 21.3404C294.143 21.3905 293.992 21.6913 294.143 21.8918L300.659 32.9191C300.809 33.2199 300.659 33.5707 300.308 33.5707H294.343C294.193 33.5707 294.042 33.5206 293.992 33.3703L287.827 22.9945C287.777 22.8441 287.627 22.794 287.476 22.794H281.612C281.411 22.794 281.211 22.9945 281.211 23.195V33.1698C281.211 33.3703 281.01 33.5707 280.81 33.5707H275.446C275.246 33.5707 275.045 33.3703 275.045 33.1698C274.995 33.1196 274.995 4.14779 274.995 4.14779ZM288.529 17.3806C290.985 17.3806 293.14 15.3756 293.14 13.0198C293.14 10.7642 291.035 8.85947 288.529 8.85947H281.662C281.461 8.85947 281.261 9.05997 281.261 9.26046V16.8794C281.261 17.0799 281.461 17.2804 281.662 17.2804H288.529V17.3806ZM186.476 33.2199L170.937 2.39344C170.787 2.19294 170.636 2.19294 170.536 2.39344L155.098 33.2199C155.048 33.4204 155.098 33.5707 155.298 33.5707H161.013C161.213 33.5707 161.514 33.4204 161.564 33.2199L163.569 28.9593C163.619 28.7588 163.92 28.6084 164.12 28.6084H177.052C177.253 28.6084 177.554 28.7588 177.604 28.9593L179.709 33.2199C179.759 33.4204 180.06 33.5707 180.26 33.5707H186.075C186.375 33.6209 186.526 33.4204 186.476 33.2199ZM174.496 23.2451H166.727C166.526 23.2451 166.376 23.0948 166.526 22.8943L170.536 14.6739C170.586 14.4734 170.837 14.4734 170.887 14.6739L174.797 22.8943C174.847 23.0447 174.747 23.2451 174.496 23.2451ZM129.334 33.6209C129.535 33.6209 129.735 33.4204 129.735 33.2199V17.531C129.735 17.3305 129.885 17.2302 130.036 17.3806L147.579 33.27C147.73 33.4204 148.081 33.5707 148.281 33.5707H149.534C149.735 33.5707 149.935 33.3703 149.935 33.1698V4.14779C149.935 3.9473 149.735 3.74679 149.534 3.74679H143.97C143.77 3.74679 143.569 3.9473 143.569 4.14779V20.4382C143.569 20.6387 143.419 20.7389 143.269 20.5886L126.577 4.04754C126.427 3.89716 126.076 3.74679 125.875 3.74679H123.971C123.77 3.74679 123.57 3.9473 123.57 4.14779V33.2199C123.57 33.4204 123.77 33.6209 123.971 33.6209H129.334ZM96.7031 33.2199C96.7031 33.4204 96.9036 33.6209 97.1041 33.6209H103.52C103.721 33.6209 103.821 33.4204 103.921 33.2199L118.507 4.14779C118.658 3.9473 118.507 3.79692 118.307 3.79692H111.74C111.54 3.79692 111.239 3.9473 111.089 4.14779L105.174 16.328C105.024 16.5285 104.873 16.5285 104.773 16.328L97.0039 4.14779C96.8535 3.9473 96.6029 3.79692 96.3522 3.79692H89.6857C89.4852 3.79692 89.385 3.9473 89.4852 4.14779L101.415 22.3429C101.465 22.4933 101.565 22.5434 101.615 22.6938C101.665 22.8442 101.665 22.9945 101.615 23.0948C101.565 23.0447 96.7031 33.0194 96.7031 33.2199ZM76.102 4.04754C75.1998 3.89716 72.4931 3.69666 72.4931 3.69666H60.4131C60.2126 3.69666 60.0121 3.89717 60.0121 4.09766V33.1698C60.0121 33.3703 60.2126 33.5707 60.4131 33.5707H72.1422C72.1422 33.5707 74.2474 33.4204 75.1998 33.27C82.5681 32.2174 87.0792 26.403 87.38 18.8342C87.5805 11.2654 83.5705 5.40089 76.102 4.04754ZM74.4479 27.7062C72.9442 28.0571 70.1372 28.2576 70.1372 28.2576H66.4782C66.2777 28.2576 66.0772 28.0571 66.0772 27.8566V16.8292V9.41084C66.0772 9.21035 66.2777 9.00984 66.4782 9.00984H70.1372C70.1372 9.00984 72.9442 9.16021 74.498 9.51108C78.7586 10.5637 81.2147 14.1225 81.1646 18.6337C81.1646 23.2451 78.6584 26.7539 74.4479 27.7062Z" fill="#181818"/>
</svg>
