<svg width="244" height="40" viewBox="0 0 244 40" fill="none" xmlns="http://www.w3.org/2000/svg">
<path d="M88.0981 0L75.9168 33.4846H14.9154C13.5434 33.4846 12.812 32.4416 13.2841 31.1644L14.1239 28.8443H70.3515L73.5618 19.9932C75.3459 15.1149 72.5459 11.1654 67.3076 11.1654H17.2762C12.0399 11.1654 6.37201 15.1149 4.59174 19.9932L0.537748 31.1644C-1.24446 36.0486 1.54786 40 6.77644 40H86.2907L100.852 0H88.0981ZM17.3362 19.9932C17.8064 18.7141 19.3022 17.6808 20.6645 17.6808H59.1706C60.5484 17.6808 61.2876 18.7141 60.8174 19.9932L59.9756 22.3211H16.4944L17.3362 19.9932ZM237.19 11.1654H177.692L169.563 33.4846H162.198L167.107 19.9932C168.872 15.1149 166.064 11.1654 160.853 11.1654H104.198L101.81 17.6808H152.714C154.094 17.6808 154.816 18.7141 154.345 19.9932L153.506 22.3211H106.754C101.524 22.3211 95.8578 26.2706 94.0755 31.1644C92.2933 36.0486 95.0837 40 100.314 40H179.937L188.066 17.6808H229.051C230.429 17.6808 231.168 18.7141 230.7 19.9932L223.418 40H236.163L243.444 19.9932C245.226 15.1149 242.419 11.1654 237.19 11.1654ZM149.444 33.4846H108.451C107.091 33.4846 106.35 32.4416 106.82 31.1644C107.292 29.8873 108.778 28.8443 110.15 28.8443H151.133L149.444 33.4846Z" fill="#181818"/>
</svg>
