<svg width="163" height="40" viewBox="0 0 163 40" fill="none" xmlns="http://www.w3.org/2000/svg">
<path d="M0 0H162V40H0V0Z" fill="white"/>
<path d="M0 0V40H162.105V0H0ZM14.7371 23.1885V32.4639H7.66294V7.53611H28.2837L26.1403 13.623H14.7371V17.3917H24.5131L22.3699 23.1885H14.7371ZM42.1976 32.4639L40.5849 28.1162H31.6926L29.9797 32.4639H23.129L32.6802 7.53611H39.7266L49.0795 32.4639H42.1976ZM67.2003 15.8248C65.7267 14.0617 63.7382 13.1142 61.532 13.1142C57.5791 13.1142 54.9099 16.1184 54.9099 19.9393C54.9099 23.8246 57.6141 26.6338 61.6311 26.6338C63.7382 26.6338 65.7255 25.6221 67.1991 24.0218V31.6959C65.1357 32.3497 63.5061 32.8384 61.4982 32.8384C58.0397 32.8384 54.7442 31.533 52.1754 29.2136C49.4423 26.7646 48.1898 23.563 48.1898 19.9073C48.1898 16.5429 49.4737 13.3115 51.8442 10.8946C54.2813 8.41349 57.8087 6.91078 61.2999 6.91078C63.3743 6.91078 65.4306 7.36729 67.1991 8.15193V15.8248H67.2003ZM86.947 13.044H81.6414V32.465H75.452V13.044H69.8526V7.53611H86.947V13.044ZM96.6735 32.4639H90.4841V7.53611H96.6735V32.4639ZM113.192 33.0013C105.223 33.0013 99.4599 27.3851 99.4599 19.4175C99.4599 11.9717 106.046 6.74672 113.192 6.74672C120.338 6.74672 126.925 11.9717 126.925 19.4175C126.925 27.3839 121.162 33.0013 113.192 33.0013ZM154.442 32.4639H147.933L136.109 17.1016H135.873V32.4639H129.683V7.53611H136.043L147.866 22.6083H147.958V7.53611H154.442V32.4639ZM113.193 12.9526C109.339 12.9526 106.178 16.0543 106.178 19.4509C106.178 23.6962 109.339 26.7991 113.193 26.7991C117.047 26.7991 120.208 23.6962 120.208 19.4509C120.208 16.0543 117.047 12.9526 113.193 12.9526ZM36.1389 15.0709L33.4696 22.897H38.8382L36.2041 15.0709H36.1389Z" fill="#181818"/>
</svg>
