<svg width="246" height="40" viewBox="0 0 246 40" fill="none" xmlns="http://www.w3.org/2000/svg">
<path d="M53.416 19.1816V40H61.774V32.7772H80.4646V28.1045H61.774V23.8595H80.4646V19.1816H53.416ZM83.2999 19.1816H91.6525V40H83.2999V19.1816ZM155.665 19.1816V40H164.018V31.9271H175.348V40H183.701V19.1816H175.348V27.2545H164.018V19.1816H155.665ZM187.386 19.1816V40H213.442V35.3273H195.744V31.9271H213.442V27.2545H195.744V23.8595H213.442V19.1816H187.386ZM136.547 40C130.824 40 126.183 35.2851 126.183 29.5618C126.183 23.8384 130.824 19.1235 136.547 19.1235H152.122V23.8226L140.655 23.8067C139.127 23.8067 137.662 24.4136 136.582 25.4939C135.501 26.5742 134.894 28.0393 134.894 29.567C134.894 31.0948 135.501 32.5599 136.582 33.6402C137.662 34.7204 139.127 35.3273 140.655 35.3273H152.122V39.9789L136.547 40ZM117.851 39.9841C118.702 40.0087 119.548 39.8623 120.341 39.5537C121.134 39.2451 121.858 38.7806 122.468 38.1877C123.078 37.5947 123.563 36.8853 123.895 36.1016C124.226 35.3178 124.397 34.4755 124.397 33.6246C124.397 32.7737 124.226 31.9314 123.895 31.1476C123.563 30.3638 123.078 29.6545 122.468 29.0615C121.858 28.4685 121.134 28.004 120.341 27.6955C119.548 27.3869 118.702 27.2405 117.851 27.265L105.744 27.2545C105.525 27.2623 105.306 27.2259 105.101 27.1475C104.895 27.0691 104.708 26.9504 104.549 26.7982C104.391 26.6461 104.264 26.4637 104.178 26.2618C104.091 26.06 104.046 25.8427 104.044 25.623C104.044 24.6832 104.81 23.849 105.744 23.849L123.659 23.8543V19.1975H100.998C97.4868 19.1975 94.6409 22.1172 94.6409 25.6283C94.6409 29.1394 97.4868 31.9166 100.998 31.9166L113.105 31.9271C113.555 31.9271 113.988 32.1062 114.307 32.4251C114.625 32.7439 114.805 33.1763 114.805 33.6272C114.805 34.0781 114.625 34.5106 114.307 34.8294C113.988 35.1482 113.555 35.3273 113.105 35.3273H94.6251V40L117.851 39.9841ZM242.893 30.3643C244.525 29.8046 245.602 27.4023 245.602 25.4118C245.602 21.6526 243.754 19.1658 239.995 19.1658H217.408V39.9947H225.766V32.7772H234.403C236.457 32.7772 237.233 34.9736 237.233 35.9662V40.0053H245.591V34.7571C245.591 33.3421 244.915 31.3252 242.893 30.3643Z" fill="#181818"/>
<path d="M234.689 28.1045H225.766V23.7961L234.689 23.8014C235.241 23.8288 235.761 24.0674 236.142 24.4679C236.524 24.8684 236.736 25.4001 236.736 25.953C236.736 26.5058 236.524 27.0375 236.142 27.438C235.761 27.8385 235.241 28.0771 234.689 28.1045Z" fill="white"/>
<path d="M32.8564 19.5565H11.5417L22.1911 0L32.8564 19.5565ZM21.3147 40H0L10.6494 20.4435L21.3147 40ZM44.3823 40H23.0676L33.717 20.4435L44.3823 40Z" fill="#181818"/>
</svg>
