<svg width="267" height="40" viewBox="0 0 267 40" fill="none" xmlns="http://www.w3.org/2000/svg">
<path fill-rule="evenodd" clip-rule="evenodd" d="M0 39.9984H14.6599V27.2949H45.4371V39.9984H60.1964V7.7848H45.4371V18.7487H14.6599V7.7848H0V39.9984ZM67.7628 7.7848V40H141.643L145.285 34.8058H177.7L181.222 40H249.469C249.469 40 261.716 38.3289 261.716 24.2494C261.716 8.74832 249.157 7.7848 249.157 7.7848H197.091V38.6794L173.946 7.7848H148.687L125.915 38.7968V32.6929H82.5531V27.6454H125.916V20.3693H82.5531V15.3218H125.916V7.7848H67.7628ZM150.916 27.528H172.069L163.192 16.1435H159.744L150.916 27.528ZM211.698 18.0216V29.8757H244.431C244.431 29.8757 247.946 29.5235 247.946 24.0571C247.946 18.02 243.88 18.02 243.88 18.02L211.698 18.0216Z" fill="#181818"/>
<path d="M261.947 6.18462e-07H261.951C262.592 -0.000322667 263.228 0.126099 263.821 0.37202C264.414 0.617941 264.952 0.978517 265.405 1.43305C266.287 2.31669 266.835 3.53618 266.835 4.88119V4.88608C266.835 6.23273 266.287 7.45384 265.402 8.3391C264.95 8.79256 264.412 9.15228 263.82 9.39763C263.229 9.64299 262.594 9.76914 261.954 9.76889H261.947C261.306 9.76943 260.67 9.64327 260.077 9.39763C259.484 9.15199 258.946 8.79171 258.493 8.33747C258.039 7.885 257.68 7.34916 257.434 6.75747C257.189 6.16579 257.063 5.53151 257.063 4.89097V4.88771C257.063 3.53943 257.611 2.31832 258.496 1.43305C258.948 0.979594 259.486 0.619885 260.078 0.374533C260.669 0.12918 261.304 0.00301045 261.944 0.00325947H261.947V6.18462e-07ZM261.951 0.929284H261.944C260.896 0.930581 259.89 1.34803 259.149 2.08993C258.408 2.83184 257.992 3.83752 257.992 4.88608V4.88934C257.992 5.98003 258.434 6.96963 259.148 7.68371H259.151C259.865 8.39779 260.855 8.84125 261.947 8.84288H261.954C262.473 8.84417 262.988 8.74278 263.468 8.54453C263.948 8.34629 264.385 8.05509 264.752 7.68769C265.119 7.32029 265.41 6.88393 265.608 6.40369C265.806 5.92345 265.907 5.40881 265.906 4.88934V4.88445C265.907 4.36481 265.805 3.85011 265.606 3.36986C265.408 2.88961 265.117 2.45325 264.749 2.08581C264.382 1.71836 263.945 1.42706 263.465 1.2286C262.985 1.03014 262.47 0.928426 261.951 0.929284Z" fill="#181818"/>
<path fill-rule="evenodd" clip-rule="evenodd" d="M260.982 2.98024H262.295C262.715 2.98024 263.097 3.09599 263.097 3.68454C263.097 4.16874 262.816 4.41981 262.308 4.41981H260.984L260.982 2.98024ZM260.982 6.93376V5.03444H262.172C262.914 5.03444 263.089 5.40778 263.089 6.25555C263.089 6.48216 263.089 6.73323 263.209 6.93376H264.075C263.901 6.74628 263.824 6.25556 263.824 5.71918C263.824 4.9888 263.416 4.78173 263.139 4.74261V4.7312C263.289 4.67903 263.9 4.45242 263.9 3.56878C263.9 2.78786 263.385 2.32159 262.375 2.32159H260.174V6.93376H260.982Z" fill="#181818"/>
</svg>
