<svg width="69" height="40" viewBox="0 0 69 40" fill="none" xmlns="http://www.w3.org/2000/svg">
<path d="M47.9015 30.3621C47.6376 30.3541 47.4216 30.1302 47.4216 29.8582C47.4216 29.6583 47.5576 29.5063 47.6775 29.4343L62.5143 21.3801C65.1697 19.9404 67.1453 17.5009 67.9851 14.5976C68.8409 11.6782 68.521 8.60689 67.0653 5.93548C64.0659 0.432684 57.1395 -1.61487 51.6287 1.37648L28.3138 14.0057L37.3038 0.0167755L25.8423 0.0327718L0 39.992L11.4375 39.984L21.8672 23.9075L21.8112 40L31.961 39.992L31.929 23.7236C31.929 23.3557 32.129 23.0117 32.4569 22.8278L56.2597 9.90261C57.0755 9.4627 58.0993 9.76664 58.5472 10.5825C58.9871 11.3983 58.6831 12.4221 57.8673 12.862L38.4076 23.4516C36.664 24.4754 35.5922 26.363 35.5922 28.3706L35.6162 39.984H52.1566L58.3552 30.3621H47.9015Z" fill="#181818"/>
</svg>
