<svg width="266" height="40" viewBox="0 0 266 40" fill="none" xmlns="http://www.w3.org/2000/svg">
<path d="M62.6836 10.4221L75.4862 10.4129L65.933 0H49.8956L24.2483 10.4138H41.7213L46.0831 8.22285L34.6036 25.4743L31.1546 12.9766H17.7687L0 39.3563H14.8462L22.7953 27.5545L25.249 39.3563H40.098L60.8817 8.25398" fill="#181818"/>
<path d="M97.1938 18.4051C95.2664 11.5565 81.4851 10.0037 70.4157 13.2229C59.3435 16.4375 47.907 24.1027 49.9085 33.1441C51.4466 40.0952 66.4512 41.6004 77.5224 38.3831C88.5918 35.1666 99.1183 25.2536 97.1938 18.4032M79.9854 25.3067C76.6874 30.228 72.7523 34.36 67.1855 34.9634C63.4151 35.3736 63.0288 31.7103 66.3276 26.7909C69.6237 21.865 75.3553 17.5407 79.1275 17.1315C82.8997 16.7222 83.2842 20.3845 79.9863 25.3076M248.05 12.9033L223.871 33.7182L216.947 33.7118C211.966 33.7118 207.769 32.5151 206.665 30.184C206.431 29.6896 206.381 28.8656 206.442 28.2723C206.543 27.2926 206.777 26.7158 207.206 25.9623C210.145 20.7746 220.007 20.5237 225.725 20.5237H229.895L236.265 12.9024H224.559C211.436 12.9024 200.64 16.1344 195.117 24.924C186.829 38.1176 204.111 40 210.215 40H232.798L236.246 36.746H248.283L247.877 39.6484H260.848L265.816 12.9015H248.05V12.9033ZM249.087 30.9403L242.483 30.9357L250.09 23.6999L249.087 30.9421V30.9403ZM185.675 12.9033L167.748 39.3563H182.727L200.651 12.9033M173.485 28.471C165.645 40.2481 145.114 39.3389 145.114 39.3389H119.566C116.129 39.3389 111.003 36.0364 111.003 29.6026L104.477 39.3399H89.6814L107.389 12.9033H125.149C135.129 12.9033 141.3 16.2956 137.574 21.7735C133.845 27.256 127.098 28.9077 125.041 28.9077C124.751 31.3413 125.217 35.2527 130.052 35.2527H130.559L145.52 12.9033H159.675C165.736 12.9033 182.604 14.7748 173.486 28.4719L173.485 28.471ZM123.118 21.4246C123.62 20.3351 122.246 18.8171 120.44 18.8171H118.225L114.381 24.555C119.158 24.555 121.935 23.9965 123.119 21.4237L123.118 21.4246ZM159.154 26.5565C162.765 21.0758 161.484 18.8171 158.629 18.8171H156.359L145.754 34.6457C151.784 34.6457 156.356 30.9064 159.153 26.5565H159.154Z" fill="#181818"/>
</svg>
