<svg width="196" height="40" viewBox="0 0 196 40" fill="none" xmlns="http://www.w3.org/2000/svg">
<path d="M26.2866 8.97934C24.0441 8.88765 21.8707 9.76647 20.3224 11.3915C18.1695 13.5384 18.1695 16.4511 18.1817 19.5325V20.2562C18.1817 23.3378 18.1817 26.2445 20.3224 28.3974C21.8739 30.0176 24.045 30.8958 26.2866 30.8096C28.5248 30.8969 30.6927 30.0183 32.2386 28.3974C34.3916 26.2445 34.3916 23.3378 34.3853 20.2562V19.5325C34.3853 16.4511 34.3854 13.5384 32.2386 11.3915C30.6945 9.76784 28.5255 8.8888 26.2866 8.97934ZM28.6082 25.3519C27.5065 26.6359 25.5724 26.7834 24.2884 25.6817C24.1705 25.5804 24.0602 25.47 23.9588 25.3519C23.4282 24.6645 23.1145 23.9528 23.1145 19.8763C23.1145 15.7998 23.4523 15.052 23.9588 14.3646C25.1212 13.0806 27.1041 12.9821 28.3881 14.1442C28.4651 14.2141 28.5386 14.2874 28.6082 14.3646C29.1147 15.0097 29.4707 15.7695 29.4707 19.8644C29.4707 23.9592 29.1269 24.6586 28.6082 25.34V25.3519ZM46.4765 17.7174L43.8412 17.3435C43.2326 17.3037 42.6558 17.0569 42.2069 16.6439C41.8944 16.3344 41.7167 15.914 41.7124 15.4742C41.7124 14.3524 42.599 13.2247 44.583 13.2247H44.7457C46.1731 13.0951 47.5947 13.5279 48.7077 14.4308C48.75 14.3826 51.7229 11.4156 51.7831 11.3614C50.0404 9.69706 47.8634 8.94924 44.7337 8.94924C40.0903 8.94924 36.9664 11.6388 36.9664 15.6369C36.9664 17.446 37.4488 18.8934 38.4078 19.8582C39.5849 20.9319 41.0838 21.5868 42.6712 21.7217L45.3186 22.0954C45.8962 22.1354 46.4457 22.3595 46.8864 22.7348C47.2259 23.1383 47.4003 23.6554 47.375 24.1822C47.375 25.6174 46.2172 26.3652 44.022 26.3652C43.0451 26.3652 40.6391 26.2264 39.1554 24.8996C39.1134 24.9479 36.074 27.9932 36.0198 28.0415C37.9133 29.9653 40.3254 30.7673 43.9919 30.7673C48.0865 30.7673 52.2175 28.699 52.2175 24.1036C52.2175 22.0051 51.711 20.4853 50.6557 19.4723C49.7571 18.5677 48.358 17.9829 46.4765 17.7174ZM64.0551 17.7174L61.432 17.3435C60.8214 17.3047 60.2424 17.0578 59.7918 16.6439C59.4813 16.333 59.3041 15.9134 59.2972 15.4742C59.2972 14.3524 60.1836 13.2247 62.1557 13.2247H62.3306C63.3075 13.2247 64.9417 13.2247 66.2924 14.4308L69.3439 11.3915C67.6012 9.72717 65.4301 8.97934 62.2943 8.97934C57.6448 8.97934 54.5212 11.6689 54.5212 15.667C54.4306 17.2118 54.9553 18.7293 55.9805 19.8885C57.1484 20.967 58.642 21.6266 60.2259 21.7638L62.8612 22.1377C63.4394 22.1742 63.9901 22.3988 64.429 22.7771C64.7799 23.1746 64.9599 23.6947 64.9296 24.2242C64.9296 25.6594 63.7717 26.4072 61.5768 26.4072C60.5998 26.4072 58.1936 26.2687 56.7102 24.9419C56.6679 24.9902 53.6226 28.0355 53.5684 28.0837C55.48 29.9653 57.862 30.7673 61.5405 30.7673C65.6413 30.7673 69.772 28.699 69.772 24.1036C69.772 22.0051 69.2595 20.4853 68.2102 19.4723C67.3176 18.5677 65.9187 17.9829 64.0551 17.7174ZM72.8173 30.5802H77.7503V9.15423H72.8173V30.5802ZM89.0996 22.4755H92.326V22.994C92.3669 23.911 92.0465 24.8075 91.4333 25.4907C90.7492 26.1404 89.8237 26.473 88.8824 26.4072C88.0033 26.4481 87.1553 26.0756 86.5909 25.4002C86.0844 24.7307 85.7468 23.9891 85.7468 19.8644C85.7468 15.7396 86.0844 15.0398 86.5909 14.3524C87.1562 13.6756 88.001 13.2955 88.8824 13.3213C90.6917 13.3213 91.6747 14.0328 92.1752 15.7757H97.1562C96.8366 14.1293 95.4135 8.97934 88.8523 8.97934C86.6228 8.89109 84.4637 9.7706 82.9304 11.3915C80.7715 13.5384 80.7775 16.4511 80.7775 19.5325V20.2562C80.7775 23.3378 80.7775 26.2445 82.9304 28.3974C84.4789 29.9963 86.6274 30.8714 88.8523 30.8096C91.5781 30.8096 93.4295 30.0859 95.0516 28.3974C96.6739 26.7087 97.1985 24.8695 97.1985 21.2754V18.423H89.0695L89.0996 22.4755ZM127.592 8.97934C125.353 8.88949 123.184 9.76853 121.64 11.3915C119.481 13.5384 119.487 16.4511 119.487 19.5325V20.2562C119.487 23.3378 119.487 26.2445 121.64 28.3974C124.967 31.5986 130.229 31.5986 133.556 28.3974C135.703 26.2445 135.697 23.3378 135.697 20.2562V19.5325C135.697 16.4511 135.697 13.5384 133.556 11.3915C132.008 9.76647 129.834 8.88765 127.592 8.97934ZM129.926 25.3519C128.821 26.6375 126.883 26.7839 125.597 25.6789C125.48 25.5783 125.371 25.4689 125.27 25.3519C124.745 24.6645 124.426 23.9528 124.426 19.8763C124.426 15.7998 124.764 15.052 125.27 14.3646C126.436 13.079 128.423 12.9816 129.708 14.147C129.784 14.2159 129.857 14.2886 129.926 14.3646C130.426 15.0339 130.764 15.7817 130.764 19.8763C130.764 23.971 130.444 24.6586 129.926 25.34V25.3519ZM144.507 25.1711C144.001 24.5016 143.663 23.754 143.663 19.6591V9.16618H138.724V20.401C138.724 23.0482 138.724 26.0395 140.871 28.1862C142.416 29.8081 144.585 30.6866 146.823 30.5984H152.853V26.1903H146.823C145.934 26.2188 145.081 25.8389 144.507 25.1591V25.1711ZM12.2357 21.4804C14.3426 20.449 15.6785 18.3083 15.679 15.9625C15.679 12.5794 13.1765 9.15423 8.44253 9.15423H0V30.5802H4.9268V22.4755H5.8132C6.9832 22.4755 7.38722 23.0786 7.75516 23.8324C8.85253 26.148 10.9512 30.5501 10.9632 30.5802H16.6923C16.644 30.4718 12.0307 21.5829 12.0307 21.5829L12.2357 21.4804ZM8.1833 18.3928H4.9268V13.5263H8.1833C9.52704 13.5263 10.6166 14.6156 10.6166 15.9596C10.6166 17.3035 9.52704 18.3928 8.1833 18.3928ZM108.337 9.15423H100.226V30.5802H105.171V13.5081H108.343C109.235 13.4782 110.091 13.8609 110.664 14.5455C111.135 15.1485 111.454 15.86 111.503 19.2372V30.5802H116.447V19.3215C116.447 16.6743 116.447 13.6892 114.301 11.5423C112.745 9.93078 110.575 9.06162 108.337 9.15423Z" fill="#181818"/>
<path d="M193.275 5.53002C191.4 4.40828 186.171 2.1046 174.87 2.1046C163.979 2.1046 159.107 4.31774 157.382 5.40339C157.382 7.62847 158.015 13.4598 163.75 23.6876C166.766 29.0547 169.781 33.113 172.699 35.7483C173.47 36.4642 174.313 37.099 175.214 37.642C177.096 36.5143 181.631 32.9685 187.275 22.9278C192.775 13.074 193.336 7.61031 193.275 5.53002ZM173.116 35.2961C170.233 32.6911 167.266 28.6626 164.293 23.3801C158.811 13.6046 158.058 7.8877 158.003 5.75914C159.698 4.79414 164.528 2.74395 174.889 2.74395C185.665 2.74395 190.839 4.89664 192.666 5.9037C192.666 7.89391 191.979 13.2429 186.708 22.6442C181.353 32.2085 176.975 35.7787 175.214 36.9243C174.469 36.4426 173.767 35.8979 173.116 35.2961Z" fill="#181818"/>
<path d="M195.338 4.43247V4.36605L195.283 4.324C193.938 3.31074 188.493 0 174.882 0C161.615 0 156.586 3.2565 155.356 4.2516L155.301 4.29366V4.36007C155.097 6.01245 154.958 12.3565 161.881 24.7007C168.635 36.7617 173.773 39.4512 175.184 40H175.317C176.836 39.3186 182.318 36.1405 189.144 23.965C195.868 11.9222 195.585 5.96419 195.338 4.43247ZM188.234 23.5006C182.239 34.1925 177.379 37.7446 175.57 38.7758L175.238 38.9626L174.9 38.7817C173.836 38.1755 172.847 37.4467 171.952 36.6109C168.936 33.8731 165.843 29.712 162.773 24.2424C156.689 13.3877 156.194 7.26679 156.266 5.138V4.77627L156.562 4.58323C158.196 3.4916 163.256 0.964997 174.882 0.964997C186.865 0.970972 192.292 3.55204 194.101 4.6917L194.403 4.88475V5.23453C194.511 7.22451 194.101 12.9835 188.234 23.5006Z" fill="#181818"/>
<path d="M173.652 10.2881V17.9107C170.938 17.5791 168.743 15.812 168.743 13.6894C168.743 11.9405 170.149 10.4389 172.157 9.77564C172.127 9.77564 171.162 9.1726 169.588 10.0349C170.204 9.41529 170.423 8.50292 170.155 7.67098C169.862 8.33308 169.382 8.89499 168.774 9.28705C168.963 8.53417 168.801 7.73579 168.333 7.11621C168.243 8.43673 166.036 9.70325 165.101 10.6501C164.539 11.28 164.245 12.1041 164.281 12.9476V14.0089C163.161 14.3129 162.482 15.4475 162.743 16.578C163.279 16.1308 163.964 15.9044 164.661 15.9446C168.967 15.9446 166.898 24.2306 173.628 26.1965V29.5856C173.631 30.127 174.069 30.5653 174.611 30.5685H174.707V9.20868C174.121 9.22178 173.652 9.70118 173.652 10.2881Z" fill="#181818"/>
<path d="M176.728 10.2881C176.731 9.69544 176.253 9.21214 175.66 9.20869H175.654V30.5805H175.763C176.3 30.574 176.731 30.1349 176.728 29.5975V26.2206C178.935 25.4969 180.087 23.8505 180.823 21.1431C180.895 20.8365 181.024 20.5462 181.202 20.2865C181.394 20.0112 181.705 19.8432 182.041 19.8343C182.604 19.831 183.063 20.2845 183.066 20.8473C183.066 20.8535 183.066 20.8595 183.066 20.8654C183.287 20.4446 183.438 19.9903 183.512 19.5208C183.565 19.0763 183.545 18.6259 183.452 18.1881C184.393 18.1881 184.833 19.7681 184.833 19.7681C185.053 19.3445 185.196 18.8849 185.255 18.4112C185.32 17.7999 185.248 17.1819 185.044 16.6021C185.967 16.6021 186.292 18.1398 186.292 18.1398C186.506 17.7181 186.639 17.2598 186.684 16.789C186.76 16.2682 186.721 15.7373 186.57 15.2331C187.318 15.2331 187.74 16.5116 187.74 16.5116C187.906 16.0664 187.988 15.5939 187.981 15.1186C187.958 12.8306 186.085 10.9944 183.797 11.0173C183.784 11.0173 183.772 11.0176 183.76 11.0178C182.519 11.0139 181.337 11.5487 180.521 12.4833C179.954 13.173 179.489 13.9406 179.14 14.7627C178.477 16.2402 177.838 17.2713 176.728 17.8261L176.728 10.2881Z" fill="#181818"/>
</svg>
