<svg width="304" height="35" viewBox="0 0 304 35" fill="none" xmlns="http://www.w3.org/2000/svg">
<path fill-rule="evenodd" clip-rule="evenodd" d="M55.2652 0.321061L37.4832 34.705H49.369L52.2108 28.4161H65.4221L66.5545 34.7071H78.438L71.5699 0.32323H55.2652V0.321061ZM55.1655 21.8365L62.4848 7.39959H62.5846L64.7908 21.8365H55.1655ZM98.0922 0.321061H86.6446L81.486 34.7028H109.88L111.058 26.4507H94.1115L98.0922 0.321061ZM194.458 0.321061L183.46 26.1101H183.36L180.314 0.321061H165.723L153.007 34.7028H164.203L172.55 9.89215H172.65L175.301 34.7006H188.859L199.177 10.4844H199.27L200.99 34.7006H212.433L209.44 0.321061H194.458ZM293.391 0.321061L289.512 25.5178H289.416L278.513 0.321061H263.037L257.883 34.7028H268.784L272.123 10.044H272.222L282.54 34.7006H298.549L303.708 0.321061H293.391ZM155.109 12.5279C156.089 7.22388 154.636 4.03062 151.523 2.16499C148.412 0.299368 143.613 0.00433866 137.867 0.00433866C132.12 0.00433866 127.209 0.299368 123.376 2.16499C119.545 4.03062 116.898 7.24123 115.913 12.5279L114.091 22.4764C113.113 27.7761 114.568 30.9217 117.731 32.7873C120.894 34.6529 125.636 35 131.383 35C137.127 35 142.14 34.6529 145.924 32.7873C149.709 30.9217 152.31 27.7761 153.291 22.4764L155.109 12.5279ZM143.466 13.4759L141.845 21.7801C140.765 27.2316 138.459 27.7674 132.515 27.7674C126.571 27.7674 124.411 27.2945 125.489 21.7801L127.133 13.4759C128.218 8.02436 130.719 7.53192 136.465 7.53192C142.533 7.53626 144.499 8.07425 143.466 13.4759ZM253.312 2.18452C250.167 0.318892 245.403 0.0238626 239.656 0.0238626C233.912 0.0238626 228.998 0.316722 225.167 2.18452C221.334 4.05014 218.681 7.2434 217.7 12.5279L215.883 22.4764C214.902 27.7761 216.355 30.9217 219.521 32.7873C222.686 34.6529 227.426 35 233.172 35C238.919 35 243.93 34.6529 247.709 32.7873C251.49 30.9217 254.08 27.7718 255.08 22.4764L256.894 12.5279C257.87 7.2434 256.406 4.05014 253.312 2.18452ZM245.26 13.4802L243.659 21.7844C242.578 27.236 240.268 27.7718 234.328 27.7718C228.389 27.7718 226.224 27.2989 227.302 21.7844L228.899 13.4759C229.979 8.02436 232.484 7.53192 238.231 7.53192C244.323 7.53626 246.288 8.07642 245.255 13.4759L245.26 13.4802ZM34.444 19.2311L17.7683 11.0202C15.0654 9.69474 14.8658 9.15458 15.1131 7.9224C15.2584 7.18483 15.7031 6.79001 17.521 6.59477C18.6556 6.49715 20.7685 6.44292 22.8337 6.44292C24.1136 6.44292 25.7363 6.49715 26.5715 6.54921C29.5738 6.74445 29.9144 7.18266 29.5218 9.15241L28.9361 12.1049H39.607L40.6852 6.69022C41.5724 2.21706 39.9997 0 34.1967 0H14.9656C7.8827 0 6.01057 1.27991 4.93241 6.68805L4.29246 9.88565C3.65467 13.1353 4.53976 15.0009 9.40991 17.4132L21.7534 23.4613C25.3437 25.2337 25.6365 25.674 25.3914 26.8585C25.1961 27.8911 24.8035 28.184 23.0225 28.3315C21.2702 28.4359 19.515 28.4844 17.7597 28.4768C14.9547 28.4768 13.4969 28.4313 12.2973 28.2317C10.8764 27.9844 10.5315 27.3466 10.7267 26.3661L11.4122 22.9212H1.19465L0.209773 27.839C-0.775103 32.7591 1.68492 34.9718 8.07794 34.9718H27.3633C34.2444 34.9718 35.8888 33.002 36.9496 27.7392L37.6351 24.3941C38.1275 21.8886 37.7349 20.8581 34.444 19.2311Z" fill="#181818"/>
</svg>
