<svg width="198" height="40" viewBox="0 0 198 40" fill="none" xmlns="http://www.w3.org/2000/svg">
<path d="M52.4972 16.4812L53.7794 14.3889H73.5356L75.2752 11.0071H48.7877C47.5586 11.0072 46.3515 11.3335 45.2897 11.9526C44.2279 12.5718 43.3494 13.4616 42.744 14.5313L41.0341 17.5522C39.9767 19.4201 41.3258 21.7348 43.4712 21.7348H57.1119C57.9489 21.7348 58.4912 22.6175 58.1137 23.3647L56.9993 25.5692H36.4965L34.79 28.5852H66.2306L69.4603 22.3088C70.4201 20.4433 69.0662 18.2233 66.969 18.2233H53.4507C52.5757 18.2213 52.0398 17.2283 52.4967 16.4817L52.4972 16.4812ZM83.7823 25.655C82.7689 25.655 82.129 24.565 82.6231 23.6798L87.4377 15.0502C87.5458 14.8563 87.7038 14.6947 87.8953 14.5822C88.0867 14.4697 88.3047 14.4104 88.5268 14.4104H101.742L103.702 11.0071H82.8669C81.6721 11.0071 80.4984 11.3219 79.464 11.9199C78.4296 12.5179 77.5711 13.3779 76.9749 14.4133L71.3136 24.2455C70.2026 26.1754 71.595 28.5847 73.8214 28.5847H93.5799L95.2674 25.6555L83.7823 25.655ZM133.506 11.0071H110.608C109.578 11.0072 108.565 11.2727 107.666 11.778C106.768 12.2832 106.015 13.0112 105.48 13.8919L99.174 24.2704C98.024 26.1627 99.3856 28.5847 101.599 28.5847H125.763C127.523 28.5847 129.154 27.6673 130.067 26.1642L136.28 15.9398C137.594 13.7763 136.038 11.0071 133.506 11.0071ZM125.176 16.0847L120.133 24.6064C120.009 24.8174 119.831 24.9922 119.618 25.1136C119.405 25.2351 119.164 25.2989 118.919 25.299H111.201C110.364 25.299 109.846 24.3884 110.272 23.6681L115.314 15.1463C115.439 14.9353 115.617 14.7605 115.83 14.6391C116.043 14.5176 116.283 14.4538 116.529 14.4538H124.246C125.084 14.4538 125.602 15.3643 125.176 16.0847H125.176ZM168.68 11.0071H140.394L138.599 14.4104H148.124L140.053 28.5847H151.104L159.176 14.4108H166.886L168.68 11.0071ZM197.344 11.0071H171.265L169.47 14.4104H176.789L168.717 28.5847H179.768L187.841 14.4108H195.55L197.344 11.0071ZM21.969 7.48293L26.3682 4.41608e-10H10.5518C9.82717 -1.06572e-05 9.11564 0.192891 8.49028 0.558885C7.86492 0.924879 7.34827 1.45077 6.99343 2.08252L1.10482 12.5551C0.368269 13.8652 -0.0125202 15.3453 0.000314014 16.8482C0.0131483 18.3511 0.419159 19.8244 1.17798 21.1217L7.665 32.482L11.3716 25.932C11.7409 25.32 11.9431 24.6218 11.9581 23.9072C11.9731 23.1926 11.8003 22.4866 11.4569 21.8596L8.56727 16.7455C8.38004 16.4035 8.28305 16.0195 8.28544 15.6296C8.28783 15.2397 8.38952 14.8568 8.58092 14.5172L12.0217 8.65051C12.2212 8.29607 12.5114 8.00109 12.8626 7.79583C13.2137 7.59056 13.6131 7.4824 14.0199 7.48244L21.969 7.48293Z" fill="#181818"/>
<path d="M7.665 32.6151L3.26586 40H19.0823C19.8069 39.9999 20.5185 39.8069 21.1439 39.441C21.7693 39.075 22.2861 38.5492 22.6411 37.9175L28.5292 27.4449C29.266 26.1349 29.6469 24.6548 29.634 23.1518C29.6212 21.6489 29.2151 20.1755 28.4561 18.8783L21.9686 7.61559L18.262 14.068C17.8928 14.68 17.6907 15.3782 17.6758 16.0928C17.6609 16.8074 17.8338 17.5135 18.1771 18.1404L21.0663 23.2545C21.2536 23.5964 21.3507 23.9805 21.3484 24.3704C21.3461 24.7603 21.2445 25.1431 21.0531 25.4828L17.6128 31.447C17.4132 31.8015 17.1229 32.0964 16.7717 32.3017C16.4205 32.507 16.021 32.6151 15.6142 32.6151H7.665Z" fill="#181818"/>
</svg>
