<svg width="195" height="40" viewBox="0 0 195 40" fill="none" xmlns="http://www.w3.org/2000/svg">
<path d="M23.7177 7.88793C23.5884 7.67242 23.3297 7.67242 23.2004 7.88793L4.75215 39.6552C4.57974 39.9138 4.19181 39.9138 4.0625 39.6552L0.0969828 32.8448C-0.0323276 32.6724 -0.0323276 32.4138 0.0969828 32.2414L7.20905 20L0.0969828 7.75862C-0.0323276 7.58621 -0.0323276 7.32759 0.0969828 7.15517L4.0625 0.344829C4.23491 0.0862082 4.62284 0.0862082 4.75215 0.344829L11.6918 12.2845L18.5453 0.387935C18.6746 0.215521 18.847 0 19.0625 0H27.8125C28.028 0 28.2435 0.215521 28.3297 0.387935L33.5453 9.39655L29.0625 17.1552L23.7177 7.88793ZM46.8211 7.15517L42.8556 0.344829C42.6832 0.0862082 42.2953 0.0862082 42.1659 0.344829L23.7177 32.1121C23.5884 32.3276 23.3297 32.3276 23.2004 32.1121L17.8987 22.931L13.4159 30.6465L18.6315 39.6552C18.7608 39.8276 18.9332 40 19.1487 40H27.8556C28.0711 40 28.2866 39.8276 28.3728 39.6552L35.2263 27.8017L42.1659 39.7414C42.3384 40 42.7263 40 42.8556 39.7414L46.8211 32.931C46.9504 32.7586 46.9504 32.5 46.8211 32.3276L39.709 20.0431L46.8211 7.80173C46.9073 7.54311 46.9073 7.37069 46.8211 7.15517Z" fill="#181818"/>
<path d="M128.709 15.8313H102.604C102.052 15.8313 101.45 16.4337 101.45 16.9859V31.9458C101.45 32.498 102.052 32.9498 102.604 32.9498H128.709C129.261 32.9498 129.512 32.4478 129.512 31.9458V16.9859C129.512 16.4337 129.261 15.8313 128.709 15.8313ZM123.136 26.7249C123.136 26.9257 122.986 27.1265 122.735 27.1265H109.231C109.03 27.1265 108.829 26.9759 108.829 26.7249V22.1064C108.829 21.9056 108.98 21.7048 109.231 21.7048H122.735C122.936 21.7048 123.136 21.8554 123.136 22.1064V26.7249ZM100.847 8.60241L86.8914 32.6988C86.791 32.8996 86.5902 33 86.3392 33H79.7127C79.5119 33 79.3111 32.8996 79.1605 32.6988L65.2548 8.60241C65.1042 8.3012 65.305 8 65.6062 8H73.4878C73.6886 8 73.8894 8.1004 74.04 8.3012L82.8251 24.2149C82.9757 24.4659 83.2267 24.4659 83.3773 24.2149L92.1625 8.3012C92.2629 8.1004 92.4637 8 92.7147 8H100.596C100.797 8 100.998 8.3514 100.847 8.60241ZM144.422 33H137.293C137.092 33 136.891 32.8494 136.891 32.5984V8.4016C136.891 8.2008 137.092 8 137.293 8H144.422C144.622 8 144.773 8.2008 144.773 8.4016V32.5482C144.773 32.7992 144.622 33 144.422 33ZM160.285 33H153.156C152.956 33 152.654 32.8494 152.654 32.5984V8.4016C152.654 8.2008 152.956 8 153.156 8H160.285C160.486 8 160.536 8.2008 160.536 8.4016V32.5482C160.536 32.7992 160.486 33 160.285 33ZM193.869 33H186.741C186.54 33 186.59 32.8494 186.59 32.5984V8.4016C186.59 8.2008 186.54 8 186.741 8H193.869C194.07 8 194.472 8.2008 194.472 8.4016V32.5482C194.472 32.7992 194.12 33 193.869 33ZM126.55 13.0201C126.55 13.2209 126.399 13.4217 126.148 13.4217H118.066C117.865 13.4217 117.664 13.2711 117.664 13.0201V8.4016C117.664 8.2008 117.815 8 118.066 8H126.148C126.349 8 126.55 8.1506 126.55 8.4016V13.0201ZM113.749 13.0201C113.749 13.2209 113.598 13.4217 113.347 13.4217H105.265C105.064 13.4217 104.863 13.2711 104.863 13.0201V8.4016C104.863 8.2008 105.014 8 105.265 8H113.347C113.548 8 113.749 8.1506 113.749 8.4016V13.0201ZM181.219 13.6225L172.132 22.7088C171.982 22.8594 171.982 23.0602 172.132 23.2108L181.219 32.2972C181.47 32.5482 181.269 33 180.917 33H171.932C171.731 33 171.63 32.8996 171.53 32.7992L161.942 23.261C161.791 23.1104 161.791 22.8092 161.942 22.7088L171.53 13.1205C171.63 13.0201 171.831 12.8695 171.932 12.8695H180.917C181.269 12.9197 181.47 13.3715 181.219 13.6225Z" fill="#181818"/>
</svg>
